<svg id="Layer_1" data-name="Layer 1" xmlns="http://www.w3.org/2000/svg" viewBox="0 0 377.76 50.07"><title>logo3</title><g id="text"><path d="M98.23,158.89v44.77H87.49V180.79L77,203.66H72.27L61.94,181v22.66H51.12V158.89H61.94v0.21l12.67,25.14,12.88-25.35v0H98.23Z" transform="translate(-51.12 -154.96)" fill="#7a6887"/><path d="M105.8,168.32h10.74v35.33H105.8V168.32Z" transform="translate(-51.12 -154.96)" fill="#7a6887"/><path d="M161.92,186.1v17.56H151.24V186.1c0-5.65-1.93-8.61-8.27-8.61-4.55,0-8,3.72-8.06,8.4v17.77H124.11V168.19h10.68V171a13.86,13.86,0,0,1,9.5-4C158.82,167,161.92,177.76,161.92,186.1Z" transform="translate(-51.12 -154.96)" fill="#7a6887"/><path d="M169.48,168.32h10.74v35.33H169.48V168.32Z" transform="translate(-51.12 -154.96)" fill="#7a6887"/><path d="M252.68,186.1v17.56H242V186.1c0-5.65-2-8.61-8.27-8.61a8.15,8.15,0,0,0-8.06,8.4v17.77H215V186.1c0-5.65-2-8.61-8.27-8.61a8.15,8.15,0,0,0-8.06,8.4c-0.07,4.41,0,17.77,0,17.77H187.79V168.19h10.74V171a13.86,13.86,0,0,1,9.51-4c7.85,0,12.33,3.1,14.81,7.3a17,17,0,0,1,3.65-4.2c3.44-2.82,7.85-3.51,12.54-2.82C250.2,169.08,252.68,178.59,252.68,186.1Z" transform="translate(-51.12 -154.96)" fill="#7a6887"/><path d="M301.43,168.26v35.4H290.82v-2.82a20.61,20.61,0,0,1-4.27,2.55,19.68,19.68,0,0,1-14.81,0,19.68,19.68,0,0,1-6-4.06,19.25,19.25,0,0,1-4.06-20.8,19.21,19.21,0,0,1,10.06-10.05,18.84,18.84,0,0,1,14.81,0,20.6,20.6,0,0,1,4.27,2.55v-2.75h10.61Zm-12.74,17.63a9.54,9.54,0,1,0-9.5,9.57A9.52,9.52,0,0,0,288.69,185.89Z" transform="translate(-51.12 -154.96)" fill="#7a6887"/><path d="M309,155h10.74v48.7H309V155Z" transform="translate(-51.12 -154.96)" fill="#7a6887"/><path d="M327.3,168.32H338v35.33H327.3V168.32Z" transform="translate(-51.12 -154.96)" fill="#7a6887"/><path d="M383.5,186.1a19.33,19.33,0,0,1-1.51,7.37,18.85,18.85,0,0,1-4.06,6,17.77,17.77,0,0,1-6,4.06,18.11,18.11,0,0,1-7.37,1.52,19.24,19.24,0,0,1-7.37-1.45,19.94,19.94,0,0,1-6.06-4.06,19.63,19.63,0,0,1-4.06-6,19.27,19.27,0,0,1-1.45-7.37,18.07,18.07,0,0,1,1.45-7.37,19.16,19.16,0,0,1,4.06-6.06,18.84,18.84,0,0,1,6-4.06,19.33,19.33,0,0,1,7.37-1.52,18.11,18.11,0,0,1,7.37,1.52,18.56,18.56,0,0,1,6.06,4,19.93,19.93,0,0,1,4.06,6.06A20.71,20.71,0,0,1,383.5,186.1Zm-9.43,0a9.54,9.54,0,1,0-9.51,9.57A9.5,9.5,0,0,0,374.06,186.1Z" transform="translate(-51.12 -154.96)" fill="#7a6887"/><path d="M428.88,186.1v17.56H418.2V186.1c0-5.65-1.93-8.61-8.27-8.61a8.19,8.19,0,0,0-8.06,8.4v17.77H391.06V168.19h10.68V171a13.86,13.86,0,0,1,9.5-4C425.78,167,428.88,177.76,428.88,186.1Z" transform="translate(-51.12 -154.96)" fill="#7a6887"/></g></svg>