<?xml version="1.0" encoding="UTF-8" standalone="no"?>
<!DOCTYPE svg PUBLIC "-//W3C//DTD SVG 1.1//EN" "http://www.w3.org/Graphics/SVG/1.1/DTD/svg11.dtd">
<svg width="100%" height="100%" viewBox="0 0 1194 1193" version="1.1" xmlns="http://www.w3.org/2000/svg" xmlns:xlink="http://www.w3.org/1999/xlink" xml:space="preserve" style="fill-rule:evenodd;clip-rule:evenodd;stroke-linejoin:round;stroke-miterlimit:1.41421;">
    <g transform="matrix(4.16667,0,0,4.16667,-2.95833,-4.26661)">
        <path d="M143.99,287.202C64.985,287.202 0.71,223.013 0.71,144.113C0.71,65.214 64.985,1.024 143.99,1.024C222.995,1.024 287.27,65.214 287.27,144.113C287.27,223.013 222.995,287.202 143.99,287.202ZM264.825,163.7C260.638,162.38 226.945,152.345 188.594,158.476C204.601,202.404 211.116,238.182 212.37,245.617C239.826,227.077 259.371,197.707 264.825,163.7ZM191.795,256.806C189.975,246.083 182.87,208.712 165.687,164.123C165.419,164.214 165.149,164.301 164.88,164.395C95.852,188.416 71.073,236.223 68.87,240.719C89.62,256.878 115.698,266.52 143.99,266.52C160.943,266.52 177.101,263.057 191.795,256.806ZM53.068,226.019C55.841,221.28 89.428,165.742 152.546,145.367C154.141,144.852 155.75,144.368 157.369,143.913C154.296,136.97 150.951,130.019 147.447,123.171C86.33,141.438 27.024,140.675 21.669,140.565C21.631,141.806 21.606,143.05 21.606,144.3C21.606,175.69 33.522,204.352 53.068,226.019ZM24.192,119.267C29.666,119.34 80.087,119.558 137.334,104.376C117.055,68.378 95.186,38.111 91.959,33.692C57.721,49.82 32.128,81.342 24.192,119.267ZM115.311,25.477C118.693,30.001 140.921,60.23 160.975,97.026C204.493,80.737 222.916,56.008 225.117,52.877C203.505,33.729 175.086,22.08 143.99,22.08C134.116,22.08 124.514,23.262 115.311,25.477ZM238.722,67.011C236.143,70.496 215.634,96.751 170.385,115.2C173.232,121.022 175.963,126.943 178.504,132.903C179.405,135.016 180.282,137.118 181.14,139.211C221.862,134.097 262.324,142.293 266.359,143.145C266.089,114.297 255.767,87.808 238.722,67.011Z" style="fill:white;"/>
    </g>
</svg>
