<svg id="Layer_1" data-name="Layer 1" xmlns="http://www.w3.org/2000/svg" viewBox="0 0 463.63 50.07"><title>logo</title><g id="text"><path d="M141.17,158.89v44.77H130.42V180.79l-10.54,22.87H115.2L104.87,181v22.66H94.06V158.89h10.81v0.21l12.67,25.14,12.88-25.35v0h10.74Z" transform="translate(-8.19 -154.96)" fill="#ff0032"/><path d="M148.73,168.32h10.74v35.33H148.73V168.32Z" transform="translate(-8.19 -154.96)" fill="#ff0032"/><path d="M204.86,186.1v17.56H194.18V186.1c0-5.65-1.93-8.61-8.27-8.61-4.55,0-8,3.72-8.06,8.4v17.77H167V168.19h10.68V171a13.86,13.86,0,0,1,9.5-4C201.76,167,204.86,177.76,204.86,186.1Z" transform="translate(-8.19 -154.96)" fill="#ff0032"/><path d="M212.42,168.32h10.74v35.33H212.42V168.32Z" transform="translate(-8.19 -154.96)" fill="#ff0032"/><path d="M295.61,186.1v17.56H284.94V186.1c0-5.65-2-8.61-8.27-8.61a8.15,8.15,0,0,0-8.06,8.4v17.77H257.94V186.1c0-5.65-2-8.61-8.27-8.61a8.15,8.15,0,0,0-8.06,8.4c-0.07,4.41,0,17.77,0,17.77H230.73V168.19h10.74V171a13.86,13.86,0,0,1,9.51-4c7.85,0,12.33,3.1,14.81,7.3a17,17,0,0,1,3.65-4.2c3.44-2.82,7.85-3.51,12.54-2.82C293.13,169.08,295.61,178.59,295.61,186.1Z" transform="translate(-8.19 -154.96)" fill="#ff0032"/><path d="M344.36,168.26v35.4H333.76v-2.82a20.61,20.61,0,0,1-4.27,2.55,19.68,19.68,0,0,1-14.81,0,19.68,19.68,0,0,1-6-4.06,19.25,19.25,0,0,1-4.06-20.8,19.21,19.21,0,0,1,10.06-10.05,18.84,18.84,0,0,1,14.81,0,20.6,20.6,0,0,1,4.27,2.55v-2.75h10.61Zm-12.74,17.63a9.54,9.54,0,1,0-9.5,9.57A9.52,9.52,0,0,0,331.62,185.89Z" transform="translate(-8.19 -154.96)" fill="#ff0032"/><path d="M351.93,155h10.74v48.7H351.93V155Z" transform="translate(-8.19 -154.96)" fill="#ff0032"/><path d="M370.24,168.32H381v35.33H370.24V168.32Z" transform="translate(-8.19 -154.96)" fill="#ff0032"/><path d="M426.43,186.1a19.33,19.33,0,0,1-1.51,7.37,18.85,18.85,0,0,1-4.06,6,17.77,17.77,0,0,1-6,4.06,18.11,18.11,0,0,1-7.37,1.52,19.24,19.24,0,0,1-7.37-1.45,19.94,19.94,0,0,1-6.06-4.06,19.63,19.63,0,0,1-4.06-6,19.27,19.27,0,0,1-1.45-7.37,18.07,18.07,0,0,1,1.45-7.37,19.16,19.16,0,0,1,4.06-6.06,18.84,18.84,0,0,1,6-4.06,19.33,19.33,0,0,1,7.37-1.52,18.11,18.11,0,0,1,7.37,1.52,18.56,18.56,0,0,1,6.06,4,19.93,19.93,0,0,1,4.06,6.06A20.71,20.71,0,0,1,426.43,186.1Zm-9.43,0a9.54,9.54,0,1,0-9.51,9.57A9.5,9.5,0,0,0,417,186.1Z" transform="translate(-8.19 -154.96)" fill="#ff0032"/><path d="M471.81,186.1v17.56H461.14V186.1c0-5.65-1.93-8.61-8.27-8.61a8.19,8.19,0,0,0-8.06,8.4v17.77H434V168.19h10.68V171a13.86,13.86,0,0,1,9.5-4C468.71,167,471.81,177.76,471.81,186.1Z" transform="translate(-8.19 -154.96)" fill="#ff0032"/></g><path id="logo" d="M56.3,163.24a48.11,48.11,0,0,0-48.11,0h0a48.11,48.11,0,0,0,24.06,41.67h0A48.11,48.11,0,0,0,56.3,163.24h0Z" transform="translate(-8.19 -154.96)" fill="#ff0032"/></svg>