<?xml version="1.0" encoding="UTF-8" standalone="no"?>
<!DOCTYPE svg PUBLIC "-//W3C//DTD SVG 1.1//EN" "http://www.w3.org/Graphics/SVG/1.1/DTD/svg11.dtd">
<svg width="100%" height="100%" viewBox="0 0 42 67" version="1.1" xmlns="http://www.w3.org/2000/svg" xmlns:xlink="http://www.w3.org/1999/xlink" xml:space="preserve" style="fill-rule:evenodd;clip-rule:evenodd;stroke-linejoin:round;stroke-miterlimit:1.41421;">
    <g transform="matrix(0.692728,0,0,0.692728,-133.799,-253.527)">
        <path d="M237.835,365.99C238.233,366.009 238.628,366.041 239.021,366.1C239.827,366.221 240.622,366.433 241.38,366.73C241.925,366.943 242.454,367.193 242.965,367.478C243.35,367.693 243.724,367.928 244.078,368.19C244.619,368.592 245.114,369.057 245.552,369.569C245.928,370.008 246.263,370.483 246.554,370.983C246.751,371.322 246.928,371.672 247.086,372.031C247.759,373.568 248.052,375.241 248.131,376.909C248.19,378.144 248.124,379.377 248.057,380.61C248.012,381.43 247.961,382.249 247.907,383.068C247.818,384.429 247.718,385.789 247.619,387.15C247.37,389.92 247.123,392.69 246.876,395.46L246.607,398.498L246.549,397.988C246.573,398.22 246.594,398.452 246.612,398.685C246.627,398.889 246.639,399.093 246.651,399.298C246.668,399.685 246.682,400.071 246.687,400.458C246.698,401.309 246.675,402.16 246.633,403.009C246.616,403.348 246.596,403.686 246.574,404.024C246.564,404.186 246.556,404.347 246.542,404.509C246.515,404.832 246.456,405.152 246.39,405.47C246.319,405.81 246.218,406.146 246.108,406.475C245.861,407.208 245.534,407.915 245.133,408.576C244.94,408.893 244.728,409.195 244.506,409.492L244.455,409.557C244.688,409.761 244.688,409.761 244.919,409.969C245.148,410.181 245.147,410.18 245.373,410.396C246.101,411.107 246.786,411.856 247.414,412.657C248.699,414.298 249.744,416.124 250.521,418.057L250.623,418.255C251.132,419.279 251.526,420.353 251.852,421.449C251.974,421.858 252.092,422.269 252.198,422.683C252.288,423.037 252.338,423.4 252.383,423.762L252.467,424.859C252.595,426.762 252.694,428.666 252.658,430.573C252.63,432.045 252.525,433.53 252.204,434.97C251.937,436.17 251.492,437.328 250.963,438.436C250.503,439.399 249.964,440.325 249.354,441.201C248.904,441.848 248.416,442.468 247.894,443.06C247.456,443.557 246.994,444.034 246.512,444.49C243.297,447.53 239.266,449.57 235.105,450.985C234.545,451.176 233.981,451.355 233.414,451.525C232.623,451.762 231.826,451.98 231.026,452.181C229.891,452.465 228.747,452.715 227.599,452.937C226.243,453.199 224.88,453.422 223.513,453.612C222.502,453.754 221.491,453.883 220.469,453.908C219.451,453.933 218.43,453.873 217.42,453.733C216.913,453.662 216.407,453.574 215.908,453.46C215.888,453.6 215.852,453.821 215.828,453.967C215.728,454.542 215.589,455.106 215.374,455.651C214.944,456.74 214.257,457.726 213.379,458.502C212.943,458.888 212.46,459.203 211.966,459.508C211.483,459.805 210.993,460.089 210.493,460.355C208.544,461.391 206.413,462.176 204.191,462.287C203.825,462.305 203.458,462.305 203.092,462.286C202.607,462.26 202.124,462.199 201.647,462.103C201.126,461.997 200.614,461.848 200.118,461.658C199.48,461.413 198.869,461.1 198.298,460.724C197.719,460.343 197.183,459.899 196.699,459.403C196.296,458.99 195.931,458.542 195.605,458.066C194.991,457.173 194.521,456.185 194.183,455.156C193.798,453.987 193.581,452.765 193.474,451.541C193.365,450.288 193.382,449.032 193.43,447.777C193.476,446.641 193.552,445.506 193.6,444.371C193.618,443.907 193.635,443.443 193.618,442.979C193.614,442.902 193.614,442.902 193.609,442.825L193.609,442.82L193.52,442.524C193.447,442.208 193.374,441.899 193.332,441.577C193.3,441.333 193.286,441.075 193.27,440.83C193.267,439.092 193.254,437.354 193.256,435.617C193.257,435.183 193.26,434.749 193.265,434.315C193.27,433.841 193.263,433.797 193.294,433.393C193.337,432.824 193.44,432.265 193.588,431.715C193.59,431.332 193.59,431.333 193.595,430.951C193.611,430.189 193.64,429.427 193.68,428.666C193.71,428.104 193.741,427.542 193.793,426.981L193.807,426.847C193.778,426.775 193.75,426.703 193.722,426.63L193.63,426.381C193.556,426.158 193.483,425.936 193.423,425.709C193.263,425.105 193.166,424.483 193.15,423.858C193.13,423.076 193.246,422.295 193.423,421.535C193.656,420.539 194.018,419.573 194.509,418.675C195,417.777 195.62,416.951 196.344,416.228C197.088,415.487 197.942,414.858 198.865,414.358C199.338,414.102 199.828,413.886 200.329,413.692L200.355,413.682C200.286,413.592 200.218,413.499 200.15,413.407L199.969,413.156C199.547,412.551 199.153,411.93 198.8,411.281C198.034,409.876 197.466,408.359 197.124,406.795C196.978,406.13 196.875,405.456 196.808,404.779C196.763,404.327 196.745,403.873 196.732,403.419C196.726,402.487 196.721,401.555 196.717,400.622C196.715,399.078 196.72,397.533 196.732,395.989C196.738,395.793 196.746,395.598 196.757,395.403C196.834,394.309 197.021,393.229 197.249,392.157C197.487,391.041 197.77,389.935 198.07,388.834C198.383,387.686 198.718,386.545 199.062,385.406C199.266,384.731 199.479,384.059 199.686,383.385C199.993,382.383 200.296,381.381 200.608,380.382C200.713,380.049 200.818,379.716 200.926,379.384C201.003,379.159 201.081,378.934 201.168,378.712C201.239,378.531 201.317,378.354 201.396,378.177C201.573,377.786 201.76,377.399 201.963,377.02C202.992,375.099 204.411,373.376 206.222,372.146C206.991,371.623 207.825,371.213 208.673,370.835C209.887,370.295 211.141,369.844 212.423,369.491C215.097,368.754 217.885,368.45 220.656,368.567C222.323,368.637 223.985,368.854 225.606,369.252C226.57,369.49 227.515,369.794 228.439,370.158C228.537,370.03 228.538,370.032 228.638,369.906C228.963,369.522 229.306,369.158 229.682,368.824C230.56,368.045 231.581,367.422 232.672,366.99C232.724,366.966 232.777,366.946 232.829,366.923C233.334,366.721 233.843,366.543 234.369,366.407C234.853,366.281 235.343,366.195 235.836,366.115L236.023,366.086C236.264,366.054 236.317,366.044 236.568,366.022C236.825,365.999 237.082,365.99 237.341,365.984C237.588,365.984 237.588,365.984 237.835,365.99ZM237.325,372.482C237.134,372.491 236.948,372.515 236.76,372.546C236.467,372.594 236.176,372.644 235.89,372.725C235.704,372.777 235.521,372.84 235.343,372.914C235.303,372.93 235.264,372.951 235.223,372.968C235.149,372.999 235.073,373.025 234.999,373.057C234.826,373.131 234.658,373.217 234.497,373.314C233.917,373.666 233.45,374.179 233.192,374.809C233.024,375.218 232.959,375.65 232.942,376.09L232.942,376.165C232.961,376.673 233.021,377.178 233.063,377.684L233.177,379.129C233.116,379.72 233.057,380.311 232.998,380.902L232.899,381.926C232.803,381.778 232.703,381.633 232.603,381.488C232.462,381.289 232.463,381.29 232.319,381.093C231.93,380.575 231.521,380.075 231.075,379.605C230.368,378.859 229.582,378.189 228.731,377.613C227.394,376.709 225.9,376.049 224.341,375.634C223.05,375.29 221.717,375.114 220.383,375.058C218.468,374.977 216.539,375.158 214.677,375.616C213.578,375.887 212.503,376.252 211.466,376.704C210.805,376.991 210.141,377.292 209.571,377.74C208.775,378.367 208.165,379.2 207.689,380.088C207.584,380.284 207.485,380.483 207.392,380.685C207.331,380.818 207.268,380.951 207.215,381.087C207.169,381.204 207.128,381.324 207.087,381.443C206.934,381.913 206.788,382.385 206.64,382.856C206.391,383.668 206.145,384.48 205.896,385.291C205.692,385.958 205.481,386.622 205.279,387.29C204.919,388.478 204.57,389.67 204.249,390.87C203.992,391.828 203.749,392.792 203.55,393.764C203.397,394.508 203.264,395.257 203.23,396.017C203.219,396.35 203.222,396.683 203.22,397.015C203.218,397.315 203.217,397.614 203.215,397.913C203.21,399.709 203.215,401.505 203.227,403.301C203.234,403.514 203.243,403.727 203.256,403.94C203.31,404.636 203.429,405.326 203.618,405.998C203.739,406.426 203.889,406.845 204.062,407.254C205.083,409.673 206.983,411.612 209.081,413.136C210.216,413.96 211.431,414.675 212.717,415.237C213.697,415.666 214.716,416.006 215.759,416.244C216.634,416.444 217.525,416.573 218.421,416.628C218.718,416.647 219.016,416.658 219.313,416.662C219.523,416.664 219.733,416.657 219.943,416.661C220.081,416.667 220.218,416.675 220.355,416.684C221.107,416.743 221.856,416.83 222.605,416.921C222.828,416.948 224.033,417.097 224.256,417.127C224.655,417.183 225.054,417.25 225.451,417.317C226.446,417.483 227.437,417.672 228.418,417.908C229.062,418.062 229.703,418.234 230.333,418.44C231.123,418.698 231.909,419.001 232.617,419.441C232.749,419.523 232.876,419.613 233.002,419.703C233.264,419.891 233.519,420.088 233.765,420.296C234.62,421.022 235.365,421.879 235.945,422.839C236.343,423.497 236.662,424.201 236.908,424.929C237.381,426.328 237.575,427.806 237.594,429.278C237.61,430.427 237.476,431.57 237.164,432.676C237.105,432.887 237.037,433.096 236.966,433.304C236.909,433.468 236.852,433.633 236.777,433.789C236.696,433.959 236.602,434.122 236.497,434.277C236.249,434.642 235.945,434.967 235.618,435.261C235.181,435.652 234.699,435.991 234.199,436.297C233.529,436.707 232.825,437.057 232.107,437.376C231.248,437.757 230.365,438.084 229.475,438.384C228.243,438.8 226.991,439.155 225.723,439.441C224.825,439.644 223.919,439.812 223.007,439.943C222.812,439.972 222.615,439.998 222.419,440.023C222.219,440.049 222.018,440.078 221.816,440.092C221.619,440.105 221.42,440.107 221.222,440.096C219.876,440.02 218.627,439.374 217.564,438.58C217.364,438.43 217.168,438.275 216.975,438.115C216.695,437.881 216.424,437.635 216.162,437.381C215.843,437.071 215.534,436.752 215.236,436.422C214.907,436.057 214.586,435.683 214.268,435.308C213.332,434.204 212.493,433.006 211.822,431.721C211.431,430.973 211.098,430.192 210.847,429.386C210.702,428.925 210.588,428.456 210.496,427.981C210.458,427.783 210.436,427.579 210.411,427.38C210.357,426.955 210.309,426.53 210.262,426.104C210.162,425.187 210.074,424.267 210.028,423.344C210.016,423.111 210.008,422.878 210.003,422.644C210,422.506 210.003,422.368 209.993,422.229C209.987,422.179 209.977,422.13 209.965,422.08C209.882,421.78 209.757,421.487 209.6,421.217C209.483,421.016 209.346,420.827 209.191,420.653C209.062,420.508 208.921,420.374 208.77,420.253C207.963,419.604 206.913,419.365 205.898,419.322C205.591,419.309 205.284,419.312 204.977,419.327C203.693,419.388 202.364,419.678 201.328,420.48C201.165,420.606 201.011,420.744 200.868,420.893C200.691,421.077 200.531,421.277 200.391,421.49C200.186,421.801 200.023,422.139 199.9,422.49C199.812,422.744 199.745,423.004 199.696,423.268C199.673,423.394 199.649,423.522 199.646,423.651C199.641,423.917 199.737,424.18 199.834,424.423C199.944,424.701 200.073,424.972 200.203,425.241C200.238,425.314 200.277,425.385 200.312,425.457C200.323,425.494 200.328,425.527 200.334,425.565C200.37,425.839 200.367,426.118 200.355,426.394C200.343,426.672 200.324,426.951 200.299,427.228C200.283,427.401 200.262,427.573 200.246,427.746C200.221,428.062 200.202,428.379 200.184,428.696C200.113,430.001 200.053,431.31 200.102,432.618L200.109,432.768C200.044,432.913 199.983,433.059 199.927,433.207C199.902,433.277 199.878,433.347 199.856,433.418C199.814,433.576 199.786,433.734 199.771,433.896C199.758,434.115 199.764,434.115 199.76,434.391C199.756,434.805 199.753,435.219 199.752,435.633C199.75,437.014 199.758,438.394 199.764,439.774L199.765,440.602C199.77,440.667 199.769,440.666 199.776,440.732C199.786,440.796 199.787,440.796 199.799,440.86C199.831,440.954 199.866,441.047 199.898,441.142C200.034,441.595 200.075,442.073 200.1,442.543C200.144,443.346 200.112,444.151 200.078,444.954C200.025,445.98 199.963,447.005 199.921,448.032C199.903,448.499 199.887,448.967 199.887,449.434C199.886,449.809 199.894,450.183 199.915,450.556C199.931,450.836 199.955,451.115 199.989,451.394C200.017,451.626 200.052,451.857 200.094,452.087C200.287,453.125 200.65,454.2 201.432,454.948C201.55,455.06 201.677,455.164 201.811,455.257C201.976,455.372 202.153,455.47 202.338,455.549C202.582,455.654 202.841,455.725 203.104,455.765C203.497,455.823 203.898,455.812 204.291,455.758C204.969,455.665 205.628,455.449 206.258,455.185C206.888,454.921 207.495,454.604 208.085,454.261C208.379,454.09 208.673,453.916 208.955,453.727C208.995,453.699 209.033,453.67 209.07,453.639C209.161,453.554 209.239,453.458 209.295,453.346C209.364,453.207 209.395,453.054 209.42,452.902C209.431,452.837 209.475,452.553 209.481,452.511C209.554,452.023 209.602,451.531 209.632,451.038C209.704,449.889 209.683,448.733 209.612,447.584C209.56,446.751 209.479,445.92 209.407,445.088C209.352,444.454 209.299,443.82 209.248,443.185L209.197,442.551C209.414,442.748 209.636,442.939 209.858,443.129C210.062,443.302 210.268,443.471 210.475,443.639C211.095,444.131 211.733,444.597 212.401,445.02C214.029,446.05 215.824,446.844 217.724,447.202C218.641,447.374 219.579,447.446 220.512,447.407C221.064,447.384 221.612,447.314 222.159,447.241C222.767,447.16 223.374,447.072 223.979,446.976C226.532,446.573 229.071,446.046 231.548,445.303C232.334,445.067 233.113,444.81 233.883,444.527C234.466,444.314 235.044,444.085 235.613,443.838C236.022,443.66 236.428,443.475 236.829,443.28C239.506,441.979 242.04,440.202 243.816,437.779C244.142,437.333 244.443,436.869 244.713,436.386C244.988,435.895 245.23,435.386 245.44,434.864C245.573,434.53 245.699,434.193 245.793,433.846C245.931,433.336 246.006,432.809 246.059,432.285C246.132,431.567 246.16,430.847 246.168,430.126C246.189,428.219 246.063,426.313 245.918,424.413L245.907,424.322L245.887,424.232C245.803,423.922 245.717,423.612 245.627,423.304C245.367,422.446 245.071,421.594 244.623,420.815L244.63,420.827C244.466,420.402 244.291,419.983 244.095,419.572C243.723,418.789 243.287,418.035 242.79,417.324C242.307,416.634 241.767,415.984 241.178,415.383C240.778,414.975 240.356,414.589 239.916,414.226C237.409,412.162 234.343,410.886 231.214,410.111C230.605,409.96 229.992,409.829 229.377,409.712C228.669,409.576 227.956,409.465 227.241,409.371C226.412,409.262 225.579,409.179 224.745,409.113C224.018,409.059 223.29,409.019 222.563,408.966C221.415,408.876 220.268,408.75 219.134,408.543C218.591,408.444 218.052,408.323 217.519,408.174C217.113,408.061 216.71,407.93 216.322,407.764C215.937,407.6 215.567,407.399 215.232,407.148C214.758,406.794 214.337,406.378 213.993,405.895C213.625,405.379 213.355,404.801 213.165,404.197C212.975,403.594 212.871,402.965 212.756,402.344C212.553,401.258 212.367,400.169 212.197,399.077C212.218,399.013 212.232,398.946 212.247,398.88C212.281,398.711 212.305,398.541 212.328,398.37C212.385,397.876 212.425,397.38 212.482,396.886C212.623,395.741 212.816,394.604 213.066,393.478C213.296,392.443 213.565,391.415 213.874,390.401C213.965,390.105 214.041,389.868 214.134,389.573C214.345,388.824 214.557,388.075 214.771,387.327C214.933,386.766 215.096,386.205 215.263,385.646C215.319,385.459 215.374,385.273 215.432,385.087C215.439,385.066 215.492,384.946 215.495,384.941C215.534,384.855 215.574,384.769 215.618,384.684C215.792,384.344 216.009,384.027 216.272,383.75C216.429,383.586 216.601,383.436 216.787,383.304C217.434,382.847 218.217,382.625 218.997,382.54C219.366,382.5 219.738,382.489 220.108,382.499C220.503,382.51 220.895,382.543 221.28,382.636C221.904,382.786 222.489,383.065 223.01,383.439C224.024,384.167 224.784,385.209 225.384,386.29C225.515,386.526 225.639,386.767 225.759,387.01C226.097,387.712 226.416,388.424 226.741,389.133C227.664,391.137 228.596,393.137 229.542,395.13C229.653,395.525 229.763,395.921 229.868,396.319C230.293,397.964 230.652,399.638 230.779,401.336C230.813,401.78 230.831,402.225 230.823,402.671C230.82,402.854 230.818,402.934 230.808,403.109C230.803,403.204 230.794,403.298 230.793,403.393C230.796,403.441 230.8,403.487 230.807,403.535C230.827,403.636 230.856,403.741 230.908,403.832C230.936,403.882 230.97,403.929 231.001,403.977L231.035,404.015C231.072,404.11 231.11,404.223 231.144,404.32C231.277,404.71 231.277,404.709 231.404,405.101C231.463,405.284 231.515,405.469 231.583,405.649C231.635,405.78 231.714,405.9 231.816,405.997C231.903,406.079 232.005,406.142 232.108,406.2C232.227,406.266 232.298,406.304 232.419,406.365C232.897,406.61 233.406,406.799 233.927,406.925C234.251,407.004 234.581,407.058 234.912,407.087C235.207,407.113 235.503,407.118 235.798,407.107C236.681,407.074 237.581,406.895 238.346,406.433C238.522,406.327 238.689,406.205 238.846,406.071C239.008,405.934 239.156,405.78 239.29,405.616C239.467,405.399 239.617,405.16 239.741,404.909C239.832,404.726 239.909,404.535 239.971,404.34C240.016,404.2 240.054,404.059 240.071,403.913C240.098,403.504 240.123,403.096 240.144,402.688C240.206,401.354 240.228,400.015 240.091,398.686L240.079,398.578C240.431,394.593 240.786,390.607 241.144,386.622C241.222,385.562 241.299,384.501 241.372,383.44C241.469,381.982 241.56,380.524 241.631,379.064L241.648,378.667C241.675,377.545 241.667,376.393 241.367,375.303C241.191,374.662 240.898,374.028 240.403,373.571C240.197,373.381 239.957,373.234 239.712,373.103C239.467,372.972 239.216,372.854 238.956,372.758C238.519,372.598 238.065,372.504 237.6,372.482C237.508,372.48 237.417,372.48 237.325,372.482ZM216.516,423.02C216.579,424.205 216.711,425.386 216.855,426.564L216.89,426.826C217.056,427.658 217.403,428.438 217.832,429.167C218.19,429.776 218.604,430.354 219.051,430.9C219.252,431.146 219.461,431.386 219.669,431.626C220.064,432.081 220.467,432.529 220.915,432.933C221.163,433.157 221.423,433.37 221.705,433.549L221.726,433.563C223.656,433.312 225.556,432.851 227.398,432.229C228.101,431.992 228.8,431.736 229.478,431.435C229.992,431.207 230.497,430.959 230.97,430.653L230.979,430.647C231.034,430.394 231.071,430.138 231.088,429.879C231.112,429.519 231.1,429.156 231.077,428.796C231.021,427.915 230.857,426.999 230.403,426.229C230.296,426.047 230.171,425.876 230.033,425.715C229.778,425.419 229.479,425.17 229.161,424.943C229.09,424.908 229.018,424.875 228.944,424.844C228.286,424.575 227.593,424.39 226.902,424.224C225.731,423.943 224.542,423.745 223.352,423.561C222.723,423.481 222.093,423.402 221.462,423.327C221.104,423.286 220.746,423.246 220.387,423.209C220.215,423.192 220.121,423.183 219.95,423.168C219.892,423.163 219.833,423.157 219.775,423.156C219.596,423.154 219.418,423.159 219.239,423.158L218.965,423.153C218.585,423.141 218.206,423.126 217.827,423.099C217.414,423.07 217.003,423.028 216.592,422.979L216.514,422.968C216.514,422.985 216.515,423.003 216.516,423.02ZM194.549,428.463L194.596,428.545C194.561,428.479 194.516,428.395 194.549,428.463ZM220.358,391.438C220.268,391.722 220.178,392.005 220.09,392.289C220.014,392.547 219.939,392.804 219.866,393.062C219.546,394.226 219.271,395.402 219.081,396.595C219.016,397.002 218.959,397.412 218.913,397.822C218.875,398.169 218.844,398.517 218.81,398.864L218.781,399.112C218.936,400.038 219.099,400.963 219.282,401.883L219.29,401.924C219.942,402.103 220.609,402.213 221.278,402.304C222.27,402.439 223.267,402.506 224.265,402.569L224.328,402.573C224.334,402.323 224.32,402.071 224.301,401.822C224.271,401.422 224.22,401.024 224.157,400.629C223.992,399.588 223.746,398.562 223.472,397.545L223.437,397.416C223.127,396.764 222.82,396.111 222.514,395.457C221.854,394.043 221.197,392.627 220.546,391.209L220.469,391.042C220.432,391.174 220.395,391.306 220.358,391.438ZM211.925,398.204L212.001,398.309L212.021,398.345C211.989,398.298 211.884,398.164 211.925,398.204ZM232.747,366.959C232.697,366.981 232.648,367.001 232.598,367.024C232.669,366.993 232.74,366.966 232.811,366.935C232.831,366.926 232.768,366.951 232.747,366.959Z" style="fill:white;fill-rule:nonzero;"/>
    </g>
</svg>
