<?xml version="1.0" encoding="UTF-8" standalone="no"?>
<!DOCTYPE svg PUBLIC "-//W3C//DTD SVG 1.1//EN" "http://www.w3.org/Graphics/SVG/1.1/DTD/svg11.dtd">
<svg width="100%" height="100%" viewBox="0 0 88 37" version="1.1" xmlns="http://www.w3.org/2000/svg" xmlns:xlink="http://www.w3.org/1999/xlink" xml:space="preserve" style="fill-rule:evenodd;clip-rule:evenodd;stroke-linejoin:round;stroke-miterlimit:1.41421;">
    <g transform="matrix(1.00152,0,0,1.00152,-344.033,-300.456)">
        <path d="M404.755,300C404.772,300 415.673,300 422.942,300.524C423.958,300.644 426.174,300.654 428.151,302.716C429.709,304.286 430.217,307.852 430.217,307.852C430.217,307.852 430.737,312.04 430.737,316.228L430.737,320.155C430.737,324.343 430.217,328.53 430.217,328.53C430.217,328.53 429.709,332.097 428.151,333.667C426.174,335.729 423.958,335.739 422.942,335.86C415.667,336.383 404.743,336.399 404.743,336.399C404.743,336.399 391.227,336.277 387.068,335.879C385.911,335.663 383.313,335.729 381.336,333.667C379.777,332.097 379.27,328.53 379.27,328.53C379.27,328.53 378.75,324.343 378.75,320.155L378.75,316.228C378.75,312.04 379.27,307.852 379.27,307.852C379.27,307.852 379.777,304.286 381.336,302.716C383.313,300.654 385.529,300.644 386.545,300.524C393.814,300 404.715,300 404.732,300L404.755,300ZM364.402,317.618C364.402,315.739 364.025,314.328 363.358,313.44C362.476,312.237 361.094,311.744 359.702,311.744C358.125,311.744 356.925,312.237 356.045,313.44C355.368,314.328 355.004,315.754 355.004,317.633L355.001,323.885C355.001,325.754 355.324,327.045 356.002,327.924C356.882,329.123 358.309,329.759 359.702,329.759C361.094,329.759 362.546,329.123 363.427,327.924C364.094,327.045 364.402,325.754 364.402,323.885L364.402,317.618ZM376.066,329.456L372.759,329.456L372.759,327.541C371.505,328.979 370.442,329.705 369.283,329.705C368.266,329.705 367.56,329.225 367.207,328.358C366.992,327.831 366.839,327.009 366.839,325.8L366.839,311.873L370.147,311.873L370.147,326.148C370.224,326.637 370.432,326.816 370.853,326.816C371.486,326.816 372.059,326.265 372.759,325.278L372.759,311.873L376.066,311.873L376.066,329.456ZM396.784,312.047L393.476,312.047L393.476,325.8C393.476,327.009 393.628,327.831 393.843,328.358C394.197,329.225 394.903,329.705 395.919,329.705C397.078,329.705 398.141,328.979 399.395,327.541L399.395,329.456L402.703,329.456L402.703,312.047L399.395,312.047L399.395,325.278C398.695,326.265 398.122,326.816 397.489,326.816C397.069,326.816 396.861,326.637 396.784,326.148L396.784,312.047ZM423.072,323.363C423.072,324.628 423.078,325.379 423.049,325.551C422.869,326.394 422.417,326.816 421.641,326.816C420.559,326.816 420.102,326.007 420.113,324.4L420.113,321.274L426.386,321.274L426.386,317.715C426.386,315.855 426.019,314.495 425.36,313.615C424.477,312.425 423.222,311.795 421.641,311.795C420.032,311.795 418.777,312.425 417.865,313.615C417.196,314.495 416.805,315.933 416.805,317.792L416.805,323.885C416.805,325.734 417.234,327.028 417.904,327.899C418.815,329.087 420.07,329.681 421.719,329.681C423.366,329.681 424.659,329.058 425.531,327.795C425.914,327.237 426.162,326.605 426.268,325.906C426.297,325.591 426.38,324.872 426.38,323.856L426.38,323.363L423.072,323.363ZM408.448,306.128L405.315,306.128L405.315,329.456L408.448,329.456L408.453,327.703C409.506,329.006 410.654,329.681 411.775,329.681C413.03,329.681 413.947,329.009 414.368,327.715C414.578,326.978 414.716,325.842 414.716,324.233L414.716,317.27C414.716,315.622 414.505,314.495 414.294,313.796C413.873,312.493 413.03,311.768 411.775,311.768C410.615,311.768 409.463,312.481 408.445,313.733L408.448,306.128ZM351.345,329.456L347.863,329.456L347.863,319.881C347.863,319.881 344.255,308.142 343.511,305.954L347.167,305.954L349.61,315.124L352.041,305.954L355.697,305.954L351.345,319.881L351.345,329.456ZM386.686,309.435L386.686,329.456L390.168,329.456L390.168,309.435L393.998,309.435L393.998,306.128L383.03,306.131L383.03,309.435L386.686,309.435ZM361.094,324.233C361.268,325.974 360.728,326.838 359.701,326.838C358.674,326.838 358.135,325.974 358.309,324.233L358.309,317.27C358.135,315.529 358.674,314.713 359.702,314.713C360.728,314.713 361.27,315.529 361.096,317.27L361.094,324.233ZM411.408,324.408C411.408,326.148 410.998,326.816 410.089,326.816C409.57,326.816 408.972,326.549 408.445,326.022L408.448,315.464C408.975,314.943 409.57,314.669 410.089,314.669C410.998,314.669 411.408,315.181 411.408,316.922L411.408,324.408ZM420.113,316.74C420.113,315.113 420.559,314.669 421.611,314.669C422.656,314.669 423.072,315.153 423.072,316.762L423.072,318.662L420.113,318.666L420.113,316.74Z" style="fill:white;"/>
    </g>
</svg>
