<svg id="Layer_1" data-name="Layer 1" xmlns="http://www.w3.org/2000/svg" viewBox="0 0 462.72 35.39"><title>logo</title><path id="logo" d="M41.45,168.59a32.82,32.82,0,0,0-32.82,0h0A32.82,32.82,0,0,0,25,197h0a32.82,32.82,0,0,0,16.41-28.42h0Z" transform="translate(-8.64 -162.31)" fill="#ff0032"/><g id="text"><path d="M102,165.08v31.64H94.43V180.56L87,196.72H83.67l-7.3-16v16H68.73V165.08h7.64v0.15l9,17.77,9.1-17.91v0H102Z" transform="translate(-8.64 -162.31)" fill="#fff"/><path d="M107.36,171.75H115v25h-7.59v-25Z" transform="translate(-8.64 -162.31)" fill="#fff"/><path d="M147,184.31v12.41h-7.54V184.31c0-4-1.36-6.08-5.84-6.08a5.79,5.79,0,0,0-5.69,5.94v12.56H120.3V171.65h7.54v2a9.79,9.79,0,0,1,6.72-2.82C144.83,170.82,147,178.42,147,184.31Z" transform="translate(-8.64 -162.31)" fill="#fff"/><path d="M152.37,171.75H160v25h-7.59v-25Z" transform="translate(-8.64 -162.31)" fill="#fff"/><path d="M211.16,184.31v12.41h-7.54V184.31c0-4-1.41-6.08-5.84-6.08a5.76,5.76,0,0,0-5.69,5.94v12.56h-7.54V184.31c0-4-1.41-6.08-5.84-6.08a5.76,5.76,0,0,0-5.69,5.94c0,3.12,0,12.56,0,12.56h-7.69V171.65h7.59v2a9.79,9.79,0,0,1,6.72-2.82c5.55,0,8.71,2.19,10.46,5.16a12,12,0,0,1,2.58-3c2.43-2,5.55-2.48,8.86-2C209.4,172.29,211.16,179,211.16,184.31Z" transform="translate(-8.64 -162.31)" fill="#fff"/><path d="M245.61,171.7v25h-7.5v-2a14.56,14.56,0,0,1-3,1.8,13.9,13.9,0,0,1-10.46,0,13.91,13.91,0,0,1-4.24-2.87,13.6,13.6,0,0,1-2.87-14.7,13.57,13.57,0,0,1,7.11-7.11,13.31,13.31,0,0,1,10.46,0,14.56,14.56,0,0,1,3,1.8V171.7h7.5Zm-9,12.46a6.74,6.74,0,1,0-6.72,6.77A6.73,6.73,0,0,0,236.6,184.16Z" transform="translate(-8.64 -162.31)" fill="#fff"/><path d="M251,162.31h7.59v34.41H251V162.31Z" transform="translate(-8.64 -162.31)" fill="#fff"/><path d="M263.89,171.75h7.59v25h-7.59v-25Z" transform="translate(-8.64 -162.31)" fill="#fff"/><path d="M303.6,184.31a13.66,13.66,0,0,1-1.07,5.21,13.32,13.32,0,0,1-2.87,4.24,12.56,12.56,0,0,1-4.23,2.87,12.79,12.79,0,0,1-5.21,1.07,13.6,13.6,0,0,1-5.21-1,14.09,14.09,0,0,1-4.28-2.87,13.87,13.87,0,0,1-2.87-4.23,13.61,13.61,0,0,1-1-5.21,12.77,12.77,0,0,1,1-5.21,13.54,13.54,0,0,1,2.87-4.28A13.32,13.32,0,0,1,285,172a13.66,13.66,0,0,1,5.21-1.07,12.8,12.8,0,0,1,5.21,1.07,13.12,13.12,0,0,1,4.28,2.82,14.09,14.09,0,0,1,2.87,4.28A14.63,14.63,0,0,1,303.6,184.31Zm-6.67,0a6.74,6.74,0,1,0-6.72,6.76A6.71,6.71,0,0,0,296.94,184.31Z" transform="translate(-8.64 -162.31)" fill="#fff"/><path d="M335.67,184.31v12.41h-7.54V184.31c0-4-1.36-6.08-5.84-6.08a5.79,5.79,0,0,0-5.69,5.94v12.56H309V171.65h7.54v2a9.79,9.79,0,0,1,6.72-2.82C333.48,170.82,335.67,178.42,335.67,184.31Z" transform="translate(-8.64 -162.31)" fill="#fff"/></g><path id="logo-2" data-name="logo" d="M41.45,168.59a32.82,32.82,0,0,0-32.82,0h0A32.82,32.82,0,0,0,25,197h0a32.82,32.82,0,0,0,16.41-28.42h0Z" transform="translate(-8.64 -162.31)" fill="#ff0032"/><path d="M362.19,165.19v29.5H380.1V197H359.74V165.19h2.45Z" transform="translate(-8.64 -162.31)" fill="#fff"/><path d="M410.07,197l-3.5-7.82h-19L384.11,197h-2.64l14.27-31.82h2.68L412.71,197h-2.64Zm-4.46-10.09-8.55-19.37-8.55,19.37h17.09Z" transform="translate(-8.64 -162.31)" fill="#fff"/><path d="M439.85,173.87a7,7,0,0,1-5.18,6.82,8.14,8.14,0,0,1,6.27,8c0,6.55-6.09,8.32-11.55,8.32h-13V165.19h13C434.76,165.19,439.85,167.83,439.85,173.87Zm-21,5.73h10.91c3.82,0,7.82-1.18,7.82-5.73s-4.18-6.59-8.14-6.59H418.8V179.6Zm0,15H429.4c4,0,9.14-1,9.14-6s-4.55-6.73-8.82-6.73H418.8v12.73Z" transform="translate(-8.64 -162.31)" fill="#fff"/><path d="M468.41,171.33c-2.32-3.73-6-4.27-9.64-4.32s-9.64,1.36-9.64,6.46c0,4,4.36,5,9.73,6,6.14,1.18,12.5,2.27,12.5,9.14,0,7.18-7.27,8.91-12.59,8.91-5,0-10.59-2-13-6.91l2.18-1.09c2,3.86,7,5.77,10.86,5.77s10.14-1.09,10.14-6.73c0-4.77-5.23-5.82-10.46-6.82-5.82-1.14-11.77-2.32-11.77-8.18-0.14-6.73,6.86-8.82,12.09-8.82,4.55,0,8.5.73,11.64,5.41Z" transform="translate(-8.64 -162.31)" fill="#fff"/></svg>