<?xml version="1.0" encoding="utf-8"?>
<!-- Generator: Adobe Illustrator 19.2.1, SVG Export Plug-In . SVG Version: 6.00 Build 0)  -->
<svg version="1.1" id="Layer_1" xmlns="http://www.w3.org/2000/svg" xmlns:xlink="http://www.w3.org/1999/xlink" x="0px" y="0px"
	 viewBox="0 0 463.6 50.1" style="enable-background:new 0 0 463.6 50.1;" xml:space="preserve">
<style type="text/css">
	.st0{fill:#FFFFFF;}
</style>
<title>logo</title>
<g id="text">
	<path class="st0" d="M133,3.9v44.8h-10.8V25.8l-10.5,22.9H107L96.7,26v22.7H85.9V3.9h10.8v0.2l12.7,25.1l12.9-25.4l0,0H133L133,3.9
		z"/>
	<path class="st0" d="M140.5,13.4h10.7v35.3h-10.7V13.4z"/>
	<path class="st0" d="M196.7,31.1v17.6H186V31.1c0-5.6-1.9-8.6-8.3-8.6c-4.6,0-8,3.7-8.1,8.4v17.8h-10.8V13.2h10.7V16
		c2.5-2.5,5.9-3.9,9.5-4C193.6,12,196.7,22.8,196.7,31.1z"/>
	<path class="st0" d="M204.2,13.4H215v35.3h-10.7V13.4z"/>
	<path class="st0" d="M287.4,31.1v17.6h-10.7V31.1c0-5.6-2-8.6-8.3-8.6c-4.5,0-8.1,3.7-8.1,8.2c0,0.1,0,0.1,0,0.2v17.8h-10.7V31.1
		c0-5.6-2-8.6-8.3-8.6c-4.5,0-8.1,3.7-8.1,8.2c0,0.1,0,0.1,0,0.2c-0.1,4.4,0,17.8,0,17.8h-10.9V13.2h10.7V16c2.5-2.5,5.9-3.9,9.5-4
		c7.8,0,12.3,3.1,14.8,7.3c1-1.6,2.2-3,3.6-4.2c3.4-2.8,7.9-3.5,12.5-2.8C284.9,14.1,287.4,23.6,287.4,31.1z"/>
	<path class="st0" d="M336.2,13.3v35.4h-10.6v-2.8c-1.3,1-2.7,1.9-4.3,2.6c-4.7,1.9-10.1,1.9-14.8,0c-2.2-1-4.3-2.3-6-4.1
		c-5.4-5.5-7-13.7-4.1-20.8c1.9-4.5,5.5-8.1,10.1-10.1c4.7-2,10.1-2,14.8,0c1.5,0.7,3,1.5,4.3,2.6v-2.8L336.2,13.3L336.2,13.3z
		 M323.4,30.9c0-5.3-4.3-9.5-9.6-9.5c-5.3,0-9.5,4.3-9.5,9.6c0,5.3,4.3,9.5,9.6,9.5c0,0,0,0,0,0C319.2,40.5,323.4,36.2,323.4,30.9
		C323.4,31,323.4,30.9,323.4,30.9z"/>
	<path class="st0" d="M343.7,0h10.7v48.7h-10.7V0z"/>
	<path class="st0" d="M362,13.4h10.8v35.3H362V13.4z"/>
	<path class="st0" d="M418.2,31.1c0,2.5-0.5,5-1.5,7.4c-1,2.2-2.3,4.3-4.1,6c-1.7,1.8-3.7,3.1-6,4.1c-2.3,1-4.8,1.5-7.4,1.5
		c-2.5,0-5-0.5-7.4-1.4c-2.3-1-4.3-2.3-6.1-4.1c-1.7-1.7-3.1-3.8-4.1-6c-1-2.3-1.5-4.8-1.5-7.4c0-2.5,0.5-5,1.5-7.4
		c1-2.3,2.3-4.3,4.1-6.1c1.7-1.7,3.8-3.1,6-4.1c2.3-1,4.8-1.5,7.4-1.5c2.5,0,5,0.5,7.4,1.5c2.3,0.9,4.3,2.3,6.1,4
		c1.7,1.8,3.1,3.8,4.1,6.1C417.7,26.1,418.2,28.6,418.2,31.1z M408.8,31.1c0-5.3-4.3-9.5-9.6-9.5c-5.3,0-9.5,4.3-9.5,9.6
		c0,5.3,4.3,9.5,9.6,9.5C404.5,40.7,408.8,36.5,408.8,31.1C408.8,31.2,408.8,31.2,408.8,31.1z"/>
	<path class="st0" d="M463.6,31.1v17.6H453V31.1c0-5.6-1.9-8.6-8.3-8.6c-4.5,0.1-8.1,3.8-8.1,8.3c0,0,0,0.1,0,0.1v17.8h-10.8V13.2
		h10.7V16c2.5-2.5,5.9-3.9,9.5-4C460.5,12,463.6,22.8,463.6,31.1z"/>
</g>
<path id="logo" class="st0" d="M48.1,8.3C33.2-0.3,14.9-0.3,0,8.3l0,0c0,17.2,9.2,33.1,24.1,41.7l0,0C38.9,41.4,48.1,25.5,48.1,8.3
	L48.1,8.3z"/>
</svg>
